# xmcd
#
# Track frame offsets:
# 150
# 13068
# 34869
# 53183
# 82823
# 95789
# 119640
# 138353
# 165981
# 187720
# 207551
# 236447
# 250943
# 272785
# 287563
#
# Disc length: 4067 seconds
#
#
# Revision: 0
# Processed by: cddbd v1.5.2PL0 Copyright (c) Steve Scherf et al.
# Submitted via: FreeRIP 2.95 
#
DISCID=ce0fe10f
DTITLE=Paul F. Cowlan - Caught At The Crossroads
DYEAR=1900
DGENRE=Blues
TTITLE0=Gemini Boys And Girls
TTITLE1=Going For The Gold
TTITLE2=F/M Blues
TTITLE3=Backtracks
TTITLE4=Going Wrong
TTITLE5=Ciphers
TTITLE6=Could Have Loved You
TTITLE7=The Quantum, Relative, Cosmic Blues
TTITLE8=Caught At The Cross-Roads
TTITLE9=Granfer's Double
TTITLE10=Blow By Blow
TTITLE11=Contraband
TTITLE12=Oxford Eastertime
TTITLE13=Handy Man
TTITLE14=Politically Erect
EXTD=
EXTT0=
EXTT1=
EXTT2=
EXTT3=
EXTT4=
EXTT5=
EXTT6=
EXTT7=
EXTT8=
EXTT9=
EXTT10=
EXTT11=
EXTT12=
EXTT13=
EXTT14=
PLAYORDER=
